<svg width="1913" height="306" viewBox="0 0 1913 306" fill="none" xmlns="http://www.w3.org/2000/svg">
<path d="M1913 46.0111H1874.88V11.5586H1913V46.0111ZM1913 237.04H1874.88V78.5578H1913V237.04Z" fill="white"/>
<path d="M1753.35 237.04H1715.23V131.923C1715.23 126.938 1713.91 123.175 1711.27 120.634C1708.63 117.995 1704.72 116.676 1699.54 116.676H1649.99V237.04H1611.87V97.4701C1611.87 94.8312 1612.36 92.3878 1613.34 90.1398C1614.31 87.7941 1615.68 85.7905 1617.44 84.1289C1619.2 82.3696 1621.25 81.0013 1623.6 80.0239C1625.94 79.0466 1628.44 78.5579 1631.08 78.5579H1699.83C1705.11 78.5579 1710.78 79.4864 1716.84 81.3434C1722.9 83.2004 1728.67 86.1814 1734.14 90.2864V78.5579H1785.75C1789.36 78.5579 1793.17 78.9977 1797.18 79.8773C1801.19 80.6592 1805.15 81.9298 1809.06 83.6891C1813.06 85.4484 1816.88 87.7452 1820.49 90.5796C1824.11 93.3163 1827.28 96.6882 1830.02 100.695C1832.76 104.605 1834.96 109.15 1836.62 114.33C1838.28 119.51 1839.11 125.374 1839.11 131.923V237.04H1800.99V131.923C1800.99 126.938 1799.72 123.175 1797.18 120.634C1794.74 117.995 1790.93 116.676 1785.75 116.676H1751.44C1752.71 121.367 1753.35 126.449 1753.35 131.923V237.04Z" fill="white"/>
<path d="M1579.32 183.528C1579.32 190.077 1578.49 195.99 1576.83 201.268C1575.17 206.448 1572.97 211.041 1570.23 215.049C1567.5 218.958 1564.32 222.33 1560.7 225.164C1557.09 227.901 1553.28 230.149 1549.27 231.908C1545.36 233.668 1541.35 234.987 1537.25 235.867C1533.24 236.649 1529.43 237.04 1525.81 237.04H1457.05C1451.78 237.04 1446.01 236.111 1439.75 234.254C1433.5 232.397 1427.68 229.367 1422.31 225.164C1417.03 220.864 1412.58 215.342 1408.97 208.598C1405.45 201.756 1403.69 193.4 1403.69 183.528V131.923C1403.69 122.149 1405.45 113.89 1408.97 107.146C1412.58 100.305 1417.03 94.7823 1422.31 90.5796C1427.68 86.2791 1433.5 83.2004 1439.75 81.3434C1446.01 79.4864 1451.78 78.5579 1457.05 78.5579H1525.81C1535.59 78.5579 1543.89 80.3171 1550.73 83.8357C1557.58 87.3543 1563.1 91.8013 1567.3 97.1769C1571.5 102.455 1574.53 108.221 1576.39 114.476C1578.35 120.732 1579.32 126.547 1579.32 131.923V183.528ZM1541.21 132.216C1541.21 126.938 1539.89 123.029 1537.25 120.487C1534.61 117.946 1530.8 116.676 1525.81 116.676H1457.35C1452.26 116.676 1448.4 117.995 1445.76 120.634C1443.13 123.175 1441.81 126.938 1441.81 131.923V183.528C1441.81 188.513 1443.13 192.325 1445.76 194.964C1448.4 197.602 1452.26 198.922 1457.35 198.922H1525.81C1530.99 198.922 1534.85 197.602 1537.39 194.964C1539.93 192.325 1541.21 188.513 1541.21 183.528V132.216Z" fill="white"/>
<path d="M1374.37 183.528C1374.37 190.077 1373.54 195.99 1371.87 201.268C1370.21 206.448 1368.01 211.041 1365.28 215.049C1362.54 218.958 1359.36 222.33 1355.75 225.164C1352.13 227.901 1348.32 230.149 1344.31 231.908C1340.4 233.668 1336.4 234.987 1332.29 235.867C1328.28 236.649 1324.47 237.04 1320.86 237.04H1252.1C1246.82 237.04 1241.05 236.111 1234.8 234.254C1228.54 232.397 1222.73 229.367 1217.35 225.164C1212.07 220.864 1207.63 215.342 1204.01 208.598C1200.49 201.756 1198.73 193.4 1198.73 183.528V131.923C1198.73 122.149 1200.49 113.89 1204.01 107.146C1207.63 100.305 1212.07 94.7823 1217.35 90.5796C1222.73 86.2791 1228.54 83.2004 1234.8 81.3434C1241.05 79.4864 1246.82 78.5579 1252.1 78.5579H1320.86C1330.63 78.5579 1338.94 80.3171 1345.78 83.8357C1352.62 87.3543 1358.14 91.8013 1362.35 97.1769C1366.55 102.455 1369.58 108.221 1371.43 114.476C1373.39 120.732 1374.37 126.547 1374.37 131.923V183.528ZM1336.25 132.216C1336.25 126.938 1334.93 123.029 1332.29 120.487C1329.65 117.946 1325.84 116.676 1320.86 116.676H1252.39C1247.31 116.676 1243.45 117.995 1240.81 120.634C1238.17 123.175 1236.85 126.938 1236.85 131.923V183.528C1236.85 188.513 1238.17 192.325 1240.81 194.964C1243.45 197.602 1247.31 198.922 1252.39 198.922H1320.86C1326.04 198.922 1329.9 197.602 1332.44 194.964C1334.98 192.325 1336.25 188.513 1336.25 183.528V132.216Z" fill="white"/>
<path d="M1172.93 190.859C1172.93 195.55 1172.1 200.584 1170.44 205.959C1168.87 211.335 1166.23 216.319 1162.52 220.913C1158.9 225.507 1154.16 229.367 1148.3 232.495C1142.44 235.525 1135.25 237.04 1126.75 237.04H982.048C979.311 237.04 976.77 236.551 974.424 235.574C972.079 234.596 970.026 233.277 968.267 231.615C966.605 229.856 965.286 227.804 964.308 225.458C963.331 223.112 962.842 220.571 962.842 217.834V46.0114C962.842 43.3725 963.331 40.8801 964.308 38.5344C965.286 36.1887 966.605 34.1362 968.267 32.377C970.026 30.6177 972.079 29.2494 974.424 28.272C976.77 27.2946 979.311 26.8059 982.048 26.8059H1109.6C1114.29 26.8059 1119.32 27.6367 1124.7 29.2982C1130.07 30.9598 1135.06 33.6475 1139.65 37.3616C1144.34 40.9779 1148.2 45.7182 1151.23 51.5824C1154.36 57.4467 1155.92 64.6304 1155.92 73.1336V80.3173C1155.92 87.0612 1154.8 94.3427 1152.55 102.162C1150.3 109.883 1146.69 117.213 1141.7 124.153C1146 126.792 1150.01 129.968 1153.72 133.682C1157.54 137.396 1160.86 141.697 1163.69 146.583C1166.53 151.47 1168.78 156.993 1170.44 163.15C1172.1 169.308 1172.93 176.1 1172.93 183.528V190.859ZM1134.81 183.528C1134.81 178.544 1134.03 174.097 1132.47 170.187C1130.9 166.18 1128.7 162.759 1125.87 159.925C1123.03 157.09 1119.61 154.94 1115.61 153.474C1111.6 151.91 1107.1 151.128 1102.12 151.128H1016.21V112.717H1084.97C1089.95 112.717 1094.45 111.984 1098.45 110.518C1102.46 108.954 1105.88 106.755 1108.72 103.921C1111.55 101.087 1113.7 97.7146 1115.17 93.8051C1116.73 89.7979 1117.51 85.3019 1117.51 80.3173V73.1336C1117.51 67.6603 1114.87 64.9236 1109.6 64.9236H1000.96V198.922H1126.75C1127.43 198.922 1128.26 198.873 1129.24 198.775C1130.22 198.678 1131.1 198.384 1131.88 197.896C1132.66 197.407 1133.35 196.576 1133.93 195.403C1134.52 194.231 1134.81 192.618 1134.81 190.565V183.528Z" fill="white"/>
<path d="M919.115 42.3539H880.998V7.90137H919.115V42.3539ZM919.115 233.382H880.998V74.9006H919.115V233.382Z" fill="white"/>
<path d="M848.636 252.287C848.636 258.835 847.805 264.699 846.144 269.879C844.482 275.157 842.283 279.751 839.547 283.66C836.81 287.668 833.633 291.04 830.017 293.776C826.401 296.611 822.589 298.908 818.582 300.667C814.672 302.426 810.665 303.697 806.56 304.479C802.553 305.358 798.741 305.798 795.125 305.798H726.366V267.68H795.125C800.305 267.68 804.165 266.361 806.707 263.722C809.248 261.083 810.518 257.271 810.518 252.287V131.923C810.518 126.938 809.248 123.175 806.707 120.634C804.165 117.995 800.305 116.676 795.125 116.676H726.366C721.675 116.676 717.961 118.142 715.224 121.074C712.488 123.908 711.119 127.524 711.119 131.923V183.528C711.119 188.513 712.439 192.325 715.078 194.963C717.716 197.602 721.577 198.922 726.659 198.922H795.125V237.04H726.366C722.75 237.04 718.938 236.649 714.931 235.867C710.924 234.987 706.916 233.668 702.909 231.908C699 230.149 695.237 227.901 691.621 225.164C688.004 222.33 684.828 218.958 682.091 215.049C679.354 211.041 677.155 206.448 675.494 201.268C673.832 195.99 673.001 190.077 673.001 183.528V131.923C673.001 128.306 673.392 124.495 674.174 120.487C675.054 116.48 676.373 112.522 678.133 108.612C679.892 104.605 682.14 100.793 684.877 97.1769C687.711 93.5606 691.083 90.3841 694.992 87.6475C699 84.9108 703.593 82.7117 708.773 81.0502C713.954 79.3886 719.818 78.5579 726.366 78.5579H795.125C798.741 78.5579 802.553 78.9977 806.56 79.8773C810.665 80.6592 814.672 81.9298 818.582 83.6891C822.589 85.4484 826.401 87.7452 830.017 90.5796C833.633 93.3163 836.81 96.6882 839.547 100.695C842.283 104.605 844.482 109.15 846.144 114.33C847.805 119.51 848.636 125.374 848.636 131.923V252.287Z" fill="white"/>
<path d="M639.575 46.0111H601.457V11.5586H639.575V46.0111ZM639.575 237.04H601.457V78.5578H639.575V237.04Z" fill="white"/>
<path d="M567.738 149.076C567.738 161.879 565.49 173.657 560.994 184.408C556.596 195.159 550.487 204.444 542.668 212.263C534.849 219.985 525.564 226.044 514.813 230.442C504.062 234.841 492.382 237.04 479.774 237.04H376.856C374.119 237.04 371.578 236.551 369.232 235.574C366.887 234.596 364.834 233.277 363.075 231.615C361.413 229.856 360.094 227.804 359.116 225.458C358.139 223.112 357.65 220.571 357.65 217.834V46.0114C357.65 43.3725 358.139 40.8801 359.116 38.5344C360.094 36.1887 361.413 34.1362 363.075 32.377C364.834 30.6177 366.887 29.2494 369.232 28.272C371.578 27.2946 374.119 26.8059 376.856 26.8059H479.774C492.382 26.8059 504.062 29.005 514.813 33.4032C525.564 37.8014 534.849 43.91 542.668 51.729C550.487 59.4503 556.596 68.7354 560.994 79.5843C565.49 90.3354 567.738 102.064 567.738 114.77V149.076ZM529.62 114.77C529.62 107.342 528.398 100.549 525.955 94.3915C523.609 88.2341 520.237 83.0051 515.839 78.7046C511.441 74.3064 506.163 70.9345 500.005 68.5888C493.946 66.1453 487.202 64.9236 479.774 64.9236H395.768V198.922H479.774C487.202 198.922 493.946 197.749 500.005 195.403C506.163 192.96 511.441 189.588 515.839 185.288C520.237 180.889 523.609 175.66 525.955 169.601C528.398 163.443 529.62 156.602 529.62 149.076V114.77Z" fill="white"/>
<path d="M300.25 150.125C300.25 233.037 233.037 300.25 150.125 300.25C67.2133 300.25 0 233.037 0 150.125C0 67.2133 67.2133 0 150.125 0C233.037 0 300.25 67.2133 300.25 150.125Z" fill="#FF4000"/>
<path d="M205.828 119.083L126.645 196.723C119.069 204.15 106.978 204.266 99.2605 196.985L68.7355 168.189L16.7595 220.164L5.87207 197.533L54.6844 148.713C62.2393 141.158 74.4351 140.981 82.2078 148.312L112.764 177.139L189.238 102.154L205.828 119.083Z" fill="white"/>
<path d="M151.172 116.896C144.653 117.472 138.895 112.655 138.317 106.136C137.741 99.6159 142.562 93.8636 149.082 93.2869L202.116 88.5947C214.365 87.5113 224.615 97.761 223.531 110.01L218.844 163.049C218.266 169.568 212.509 174.385 205.99 173.809C199.471 173.23 194.654 167.473 195.23 160.954L199.508 112.623L151.172 116.896Z" fill="white"/>
</svg>
