<svg width="300" height="300" viewBox="0 0 300.25 300.25" fill="none" xmlns="http://www.w3.org/2000/svg">
<path d="M300.25 150.125C300.25 233.037 233.037 300.25 150.125 300.25C67.2133 300.25 0 233.037 0 150.125C0 67.2133 67.2133 0 150.125 0C233.037 0 300.25 67.2133 300.25 150.125Z" fill="#FF4000"/>
<path d="M205.828 119.083L126.645 196.723C119.069 204.15 106.978 204.266 99.2605 196.985L68.7355 168.189L16.7595 220.164L5.87207 197.533L54.6844 148.713C62.2393 141.158 74.4351 140.981 82.2078 148.312L112.764 177.139L189.238 102.154L205.828 119.083Z" fill="white"/>
<path d="M151.172 116.896C144.653 117.472 138.895 112.655 138.317 106.136C137.741 99.6159 142.562 93.8636 149.082 93.2869L202.116 88.5947C214.365 87.5113 224.615 97.761 223.531 110.01L218.844 163.049C218.266 169.568 212.509 174.385 205.99 173.809C199.471 173.23 194.654 167.473 195.23 160.954L199.508 112.623L151.172 116.896Z" fill="white"/>
</svg>
