<svg width="38" height="38" viewBox="0 0 38 38" fill="none" xmlns="http://www.w3.org/2000/svg">
<path d="M38 19C38 29.4934 29.4934 38 19 38C8.50659 38 0 29.4934 0 19C0 8.50659 8.50659 0 19 0C29.4934 0 38 8.50659 38 19Z" fill="#FF4000"/>
<path d="M26.0498 15.0713L16.0283 24.8975C15.0695 25.8375 13.5393 25.8521 12.5625 24.9307L8.69922 21.2861L2.12109 27.8643L0.743164 25L6.9209 18.8213C7.87707 17.8651 9.42057 17.8428 10.4043 18.7705L14.2715 22.4189L23.9502 12.9287L26.0498 15.0713Z" fill="white"/>
<path d="M19.1325 14.7945C18.3073 14.8674 17.5787 14.2578 17.5056 13.4327C17.4326 12.6075 18.0428 11.8795 18.868 11.8065L25.58 11.2127C27.1302 11.0755 28.4274 12.3728 28.2903 13.923L27.6971 20.6357C27.624 21.4607 26.8953 22.0704 26.0703 21.9974C25.2453 21.9242 24.6355 21.1956 24.7085 20.3705L25.2499 14.2538L19.1325 14.7945Z" fill="white"/>
</svg>
